<svg xmlns="http://www.w3.org/2000/svg" viewBox="0 0 659 941" fill="none">
  <path d="M276.213 897.214C276.389 896.505 278.846 892.034 279.321 891.147C303.488 845.931 303.063 796.715 279.975 751.111C276.788 744.815 262.469 722.162 261.465 718.978L261.333 718.548C279.859 725.919 292.628 731.657 313.87 725.339C326.724 721.516 340.849 711.092 350.335 701.367C374.743 676.343 394.621 643.811 413.063 614.194C431.011 585.37 449.01 555.13 464.36 524.897C475.84 501.868 486.805 478.582 497.243 455.065C511.185 424.378 526.274 391.773 533.758 358.86C540.909 327.415 528.358 305.348 500.317 291.292C508.387 288.377 521.289 287.08 530.195 285.377C553.086 281.028 575.009 272.63 594.938 260.57C622.168 243.466 641.34 220.593 656.476 192.6C656.392 219.24 651.935 236.81 646.504 262.97C637.63 305.736 625.199 346.809 611.501 388.247C555.967 552.566 466.226 703.234 348.191 830.322C328.99 851.276 308.428 869.716 287.06 888.427C283.865 891.224 279.911 895.355 276.213 897.214Z" fill="#FF3C28"/>
  <path d="M456.628 290.761C462.733 291.885 469.183 292.976 475.372 293.549C491.161 295.014 499.696 294.406 512.342 305.553C521.187 313.346 528.779 328.982 528.89 340.53C529.156 367.959 512.288 405.325 501.216 430.256C486.965 461.388 473.364 493.512 457.518 523.87C434.437 568.084 407.734 610.993 380.322 652.626C372.063 665.168 363.635 676.815 353.636 687.989C339.087 704.249 321.866 720.348 298.807 721.43C289.303 722.156 274.803 719.772 267.695 712.458C259.767 704.3 251.928 696.134 243.226 688.254C266.094 681.932 276.084 679.167 293.478 661.506C308.546 646.095 319.774 627.752 331.624 609.815C376.268 542.241 412.592 469.447 446.486 396.021C450.124 388.14 454.543 377.872 457.364 369.722C463.079 353.221 468.734 333.553 468.761 316.185C467.685 309.441 466.27 306.479 463.345 300.239C461.192 296.976 458.933 293.912 456.628 290.761Z" fill="#FF3C28"/>
  <path d="M468.761 316.185C467.685 309.441 466.27 306.479 463.345 300.239C464.457 300.597 466.554 301.244 467.293 302.16C469.833 305.317 471.99 313.093 468.761 316.185Z" fill="#FF3C28"/>
  <path fill-rule="evenodd" clip-rule="evenodd" d="M419.913 271.238C402.498 277.844 384.466 243.213 380.844 230.099C367.999 195.354 368.808 126.547 381.7 91.6694C381.866 90.2193 382.198 88.5996 382.661 87.1803C391.936 58.8011 404.735 30.2399 429.786 12.321C437.153 7.0527 442.969 2.93256 452.171 1.82174C456.044 4.80547 459.604 7.10958 463.535 10.4062C474 19.1992 483.361 34.309 486.932 47.722C501.458 102.251 488.918 175.113 463.707 224.792C454.648 241.842 438.166 264.313 419.913 271.238Z" fill="#FF3C28"/>
  <path fill-rule="evenodd" clip-rule="evenodd" d="M13.1241 861.809C10.5585 860.411 7.97982 857.564 6.58239 854.978C-8.16061 827.188 4.62189 800.034 17.9376 774.979C41.834 730.014 77.6392 694.894 121.219 668.962C141.263 657.035 158.796 647.694 182.563 653.726C186.72 655.083 190.811 657.484 194.592 659.669C202.737 672.933 198.168 699.563 191.985 713.281C177.099 746.308 153.28 779.744 128.021 805.817C103.108 831.533 69.1811 854.632 33.3656 860.748C26.6785 861.833 19.8825 861.765 13.1241 861.809Z" fill="#FF3C28"/>
  <path d="M507.761 282.2C509.493 278.871 517.886 270.302 520.838 265.706C558.528 207.013 576.171 134.316 562.967 65.1887C560.02 49.7469 554.573 35.8565 548.91 21.1991C568.257 34.8797 586.634 44.7757 605.243 60.7184C609.473 63.7898 613.911 68.8775 617.878 72.3879C655.194 105.444 673.44 156.693 644.84 201.636C617.939 243.91 579.525 268.531 530.678 278.012C523.147 279.488 515.222 280.609 507.761 282.2Z" fill="#FF3C28"/>
  <path d="M426.852 277.147C425.971 276.851 425.872 276.658 425.242 276.007C429.007 273 433.746 270.386 438.041 266.951C446.81 259.934 455.508 249.366 461.605 239.724C493.406 189.427 505.597 114.897 495.966 56.4758C492.147 33.2932 478.409 13.1456 459.217 0.445265C471.824 -1.68077 508.168 4.27159 521.182 8.47882C522.602 9.05262 524.017 9.63718 525.426 10.237C538.58 15.8842 543.03 24.6583 548.052 37.8129C570.455 97.2345 561.661 163.439 537.202 220.97C530.993 235.575 508.966 278.263 493.083 286.167C484.675 290.354 451.46 284.155 442.024 282.42C438.825 281.831 430.496 278.775 426.852 277.147Z" fill="#FF3C28"/>
  <path d="M79.9126 916.317L78.7153 915.62C79.69 914.601 83.0675 914.462 84.5883 914.11C126.254 904.47 164.52 875.712 192.487 845.131C225.421 809.117 249.199 775.22 259.04 727.733C269.56 747.182 277.969 760.013 284.643 781.63C301.475 840.174 279.409 914.079 218.722 935.234C178.292 949.327 117.061 933.251 79.9126 916.317Z" fill="#FF3C28"/>
  <path d="M55.8632 903.531C45.1348 897.413 18.0964 875.617 13.6029 865.404C64.6073 876.33 129.296 819.39 157.387 781.932C182.017 749.089 209.535 709.515 204.622 666.381L205.1 666.072L207.963 668.409C215.044 674.725 222.234 680.918 229.53 686.986C235.704 692.185 249.8 703.019 251.406 711.167C254.98 731.021 244.63 761.289 234.136 779.067C202.972 831.863 152.403 885.728 92.9983 905.295C79.2878 909.81 68.0045 910.023 55.8632 903.531Z" fill="#FF3C28"/>
</svg>
